<svg width="1000" height="250" viewBox="0 0 855 154" fill="none" xmlns="http://www.w3.org/2000/svg">
<g clip-path="url(#clip0_2_88)">
<path d="M481.62 106.18C481.62 117.18 481.58 128.18 481.66 139.18C481.67 140.83 481.39 141.45 479.57 141.39C475.42 141.24 471.26 141.26 467.11 141.39C465.51 141.44 465.18 140.96 465.19 139.43C465.24 115.41 465.23 91.3899 465.23 67.3799C465.23 60.3899 465.27 53.3999 465.2 46.4099C465.19 45.0399 465.57 44.6499 466.94 44.6799C470.95 44.7699 474.97 44.7799 478.99 44.6799C480.5 44.6399 480.83 45.1499 480.79 46.5499C480.69 50.0099 480.76 53.4599 480.76 56.9499C481.58 56.9499 481.6 56.2499 481.87 55.8499C486.97 48.0399 494.42 44.0399 503.47 43.2699C524.98 41.4299 538.06 57.5599 540.18 74.4599C541.71 86.6599 539.31 97.8999 531.16 107.48C520.78 119.69 501.86 122.15 488.87 113.05C486.13 111.13 483.95 108.69 481.64 106.19L481.62 106.18ZM502.64 103.12C514.88 103.12 524.1 93.5699 524.15 80.7999C524.21 68.1599 514.83 58.3499 502.69 58.3599C490.48 58.3599 481.2 68.0299 481.2 80.7399C481.2 93.5199 490.39 103.11 502.63 103.12H502.64Z" fill="#231F20"/>
<path d="M363.18 91.5299C366.96 95.5599 371.53 97.5899 376.94 98.1299C372.85 107.5 366.16 113.99 356.44 116.85C340.73 121.47 326.39 119.15 315.1 106.55C298.87 88.4199 303.55 55.0699 328.6 45.1899C349.78 36.8399 376.64 48.1799 377.66 77.9999C377.73 79.9299 377.44 81.8699 377.47 83.7999C377.49 85.3399 376.9 85.7099 375.39 85.6999C364.31 85.6299 353.23 85.6599 342.16 85.6599C335.86 85.6599 329.56 85.6599 323.26 85.6599C322.38 85.6599 321.5 85.3799 321.78 86.9799C323.29 95.5299 329.83 102.24 338.64 104.12C347.33 105.97 356.39 102.55 360.95 95.6399C361.77 94.3899 362.4 93.0099 363.2 91.5299H363.18ZM361.41 72.2799C360.01 63.6699 353.87 58.0599 344.49 56.6999C334.55 55.2499 325.39 61.1399 322.59 70.7499C322.36 71.5599 321.94 72.3099 323.45 72.2999C336.05 72.2599 348.64 72.2799 361.41 72.2799Z" fill="#231F20"/>
<path d="M854.61 80.5599C854.71 101.96 838.22 118.8 817.07 118.9C795.16 119.01 778.57 102.67 778.42 80.8399C778.27 59.3399 795.1 42.3899 816.59 42.3799C837.86 42.3799 854.51 59.0899 854.61 80.5499V80.5599ZM816.58 58.0999C804.25 58.0499 794.96 67.6599 794.92 80.5199C794.88 93.1699 804.35 103.27 816.36 103.38C828.33 103.5 838.09 93.3999 838.14 80.8499C838.19 67.8299 829.03 58.1499 816.58 58.0999Z" fill="#231F20"/>
<path d="M630.16 105.88C626.73 112.26 621.38 116.25 614.48 117.83C597.13 121.79 581.25 110.73 581.12 92.4399C581.01 77.0699 581.12 61.7099 581.06 46.3399C581.06 44.8699 581.58 44.6499 582.85 44.6699C587.14 44.7299 591.44 44.7799 595.73 44.6499C597.39 44.5999 597.62 45.1899 597.61 46.6599C597.56 59.6699 597.58 72.6899 597.57 85.6999C597.57 87.5099 597.69 89.2899 598.05 91.0699C599.49 98.2099 604.71 102.74 611.92 103.1C622.87 103.65 630.28 96.7099 630.34 85.6699C630.41 72.7299 630.39 59.7799 630.32 46.8399C630.32 45.1499 630.68 44.6099 632.44 44.6599C636.73 44.7999 641.02 44.7399 645.32 44.6799C646.47 44.6599 646.86 44.9599 646.86 46.1699C646.83 69.2199 646.83 92.2699 646.86 115.32C646.86 116.54 646.46 116.8 645.32 116.79C640.96 116.73 636.6 116.72 632.23 116.79C631.06 116.81 630.71 116.48 630.74 115.3C630.82 112.2 630.77 109.1 630.77 106L630.17 105.89L630.16 105.88Z" fill="#231F20"/>
<path d="M441.14 69.0599C434.49 55.2299 415.04 54.9399 406.89 65.5999C400.32 74.1899 400.11 86.7699 406.61 95.4199C413.17 104.15 426.25 106.23 435.03 99.9499C438.03 97.7999 440.04 94.8599 441.7 91.4599C446.21 95.1899 451.2 97.4399 457.07 97.7599C456.86 99.0999 456.1 100.18 455.47 101.29C449.08 112.67 439.06 118.03 426.3 118.86C414.94 119.6 404.99 116.43 396.77 108.39C376 88.0699 384.81 51.2899 412.49 43.9499C426.71 40.1799 439.96 42.6099 450.74 53.5799C453.17 56.0599 454.98 58.9999 456.44 62.4099C450.59 62.9199 445.49 64.9499 441.16 69.0599H441.14Z" fill="#231F20"/>
<path d="M669.58 91.4999C671.93 102.26 681.7 106.14 690.24 104.25C693.2 103.59 695.64 102.08 696.89 99.1499C698.58 95.1799 697.2 91.5399 693.3 89.5899C689.42 87.6499 685.14 87.0699 681 86.0499C677.58 85.2099 674.23 84.1799 670.98 82.7799C655.01 75.8899 656.17 57.4399 666.62 48.9199C672.8 43.8899 679.93 42.0499 687.72 42.4899C695.53 42.9299 702.44 45.5199 707.76 51.5399C710.17 54.2699 711.86 57.3799 712.74 61.0399C707.41 61.2999 702.72 62.8499 698.71 66.6199C698.39 65.7999 698.11 65.0699 697.82 64.3399C694.95 57.1599 685.41 53.7599 678.64 57.5399C676.25 58.8699 674.73 60.7999 674.78 63.6999C674.83 66.6099 676.56 68.2199 679 69.2899C683.6 71.2999 688.58 71.8699 693.38 73.1099C699.21 74.6099 704.74 76.7399 708.82 81.4399C715.8 89.4799 714.97 102.65 707.01 110.77C702.31 115.57 696.47 118.13 689.88 118.73C681.58 119.49 673.59 118.34 666.44 113.6C660.83 109.87 657.17 104.76 655.6 98.1899C655.43 97.4999 654.95 96.7299 656.37 96.6999C661.31 96.5999 665.64 94.8099 669.57 91.4899L669.58 91.4999Z" fill="#231F20"/>
<path d="M273.78 88.1799C273.78 79.2499 273.74 70.3299 273.82 61.3999C273.83 59.8499 273.45 59.3499 271.87 59.4599C269.8 59.5999 267.71 59.4099 265.64 59.5299C264.31 59.5999 264.02 59.1199 264.05 57.8799C264.13 54.0799 264.15 50.2699 264.05 46.4599C264.01 44.9299 264.57 44.5999 265.95 44.6699C267.95 44.7699 269.97 44.6099 271.97 44.7299C273.42 44.8199 273.83 44.3699 273.82 42.8999C273.74 35.6999 273.83 28.5099 273.75 21.3099C273.73 19.8499 274.11 19.4699 275.56 19.4999C279.99 19.5999 284.42 19.5899 288.85 19.4999C290.17 19.4699 290.45 19.8899 290.44 21.1399C290.38 28.1299 290.49 35.1199 290.36 42.0999C290.33 44.0999 290.67 44.9699 292.9 44.7399C295.16 44.5099 297.46 44.7299 299.75 44.6699C300.72 44.6499 301.09 44.9399 301.08 45.9599C301.04 50.0399 301.04 54.1299 301.08 58.2099C301.09 59.2099 300.77 59.5299 299.78 59.5099C297.29 59.4499 294.79 59.5999 292.31 59.4499C290.73 59.3599 290.37 59.8599 290.37 61.3999C290.43 79.1099 290.37 96.8299 290.45 114.54C290.45 116.38 290.02 116.85 288.19 116.79C283.9 116.64 279.61 116.68 275.32 116.78C273.99 116.81 273.74 116.39 273.75 115.16C273.8 106.16 273.78 97.1699 273.78 88.1699V88.1799Z" fill="#231F20"/>
<path d="M550.83 64.41C550.83 47.6 550.85 30.78 550.79 13.97C550.79 12.47 551.06 11.97 552.68 12.02C556.9 12.15 561.13 12.14 565.34 12.02C566.92 11.98 567.26 12.42 567.26 13.96C567.21 40.39 567.22 66.83 567.22 93.26C567.22 100.53 567.19 107.79 567.25 115.06C567.26 116.4 566.93 116.82 565.55 116.79C561.26 116.7 556.96 116.67 552.68 116.8C551.07 116.85 550.78 116.36 550.79 114.85C550.85 98.04 550.83 81.22 550.83 64.41Z" fill="#231F20"/>
<path d="M751.82 44.4399C757.39 46.1899 762.75 46.1799 768.24 44.4699C768.24 45.3199 768.24 45.9999 768.24 46.6799C768.24 69.3099 768.21 91.9499 768.29 114.58C768.29 116.49 767.75 116.85 765.99 116.79C761.77 116.66 757.54 116.73 753.32 116.76C752.41 116.76 751.78 116.79 751.79 115.51C751.83 91.91 751.82 68.3099 751.82 44.4399Z" fill="#231F20"/>
<path d="M730.75 118.02C724.58 118.02 719.45 113.05 719.48 107.12C719.51 101.03 724.63 96.1599 730.94 96.2099C737.06 96.2599 741.87 101.05 741.9 107.12C741.93 113.28 737.08 118.02 730.75 118.01V118.02Z" fill="#231F20"/>
<path d="M759.88 35.3499C753.94 35.3199 748.98 30.5399 748.95 24.8199C748.93 19.1699 753.97 14.3699 759.94 14.3699C765.93 14.3699 770.92 19.0999 770.94 24.7899C770.95 30.6599 766.02 35.3699 759.88 35.3399V35.3499Z" fill="#231F20"/>
<path d="M28.68 123.86L29.44 0.000112347C29.8 -0.0198877 29.92 0.240112 30.09 0.410112C50.28 20.8501 70.47 41.2901 90.68 61.7201C91.16 62.2001 91.15 62.4301 90.68 62.8901C88.01 65.4801 85.39 68.1101 82.74 70.7201C79.86 73.5701 76.97 76.4201 74.09 79.2701C71.02 82.3001 67.96 85.3301 64.89 88.3601C62.01 91.2101 59.12 94.0501 56.23 96.9001C53.14 99.9501 50.05 103 46.97 106.05C44.09 108.9 41.2 111.75 38.32 114.6C35.29 117.59 32.27 120.58 29.24 123.57C29.1 123.71 28.97 123.86 28.69 123.85L28.68 123.86Z" fill="url(#paint0_linear_2_88)"/>
<path d="M166.69 122.78C166.51 122.97 166.39 123.12 166.25 123.26C156.31 133.21 146.36 143.15 136.42 153.11C135.97 153.56 135.74 153.46 135.35 153.07C127.69 145.39 120.02 137.72 112.35 130.06C110.14 127.85 107.93 125.62 105.7 123.43C105.26 123 105.15 122.76 105.66 122.25C115.64 112.3 125.61 102.33 135.55 92.35C136 91.89 136.15 92.21 136.4 92.46C139.88 95.94 143.37 99.42 146.85 102.9C153.27 109.32 159.69 115.74 166.11 122.16C166.31 122.36 166.49 122.57 166.69 122.79V122.78Z" fill="url(#paint1_linear_2_88)"/>
<path d="M91.11 61.52V61.85C91.11 81.64 91.11 101.43 91.13 121.22C91.13 122.05 90.75 122.04 90.15 122.04C71.44 122.04 52.73 122.04 34.02 122.04H30.58C50.72 101.9 70.92 81.71 91.11 61.53V61.52Z" fill="url(#paint2_linear_2_88)"/>
<path d="M91.41 122.32C90.07 123.6 88.7 124.86 87.38 126.18C78.95 134.6 70.52 143.03 62.11 151.46C61.66 151.91 61.22 152.13 60.55 152.12C40.48 152.1 20.41 152.1 0.34 152.1C0.23 152.1 0.12 152.1 0 152.08C0 151.72 0.28 151.58 0.47 151.4C9.96 141.9 19.47 132.41 28.94 122.88C29.58 122.24 30.19 122 31.07 122C50.83 122.02 70.58 122.02 90.34 122.02H91.24L91.41 122.31V122.32Z" fill="url(#paint3_linear_2_88)"/>
<path d="M105.24 63.8601C106.32 64.9501 107.3 65.9701 108.3 66.9701C116.91 75.5901 125.53 84.2001 134.14 92.8101C134.46 93.1301 134.8 93.3101 134.27 93.8501C124.65 103.43 115.06 113.03 105.46 122.63C105.42 122.67 105.37 122.69 105.24 122.77V63.8601Z" fill="url(#paint4_linear_2_88)"/>
<path d="M167.74 1.89014L166.97 126.35C165.29 124.6 163.79 123.02 162.27 121.47C158.9 118.05 155.52 114.64 152.15 111.22C148.7 107.72 145.25 104.22 141.79 100.72C138.48 97.3601 135.16 94.0101 131.84 90.6601C128.84 87.6301 125.85 84.6001 122.85 81.5601C119.52 78.1801 116.18 74.8101 112.85 71.4301C110.43 68.9801 108.03 66.5201 105.6 64.1001C105.2 63.7101 105.27 63.5101 105.62 63.1701C110.48 58.3901 115.33 53.5901 120.18 48.8001C125.37 43.6701 130.57 38.5401 135.76 33.4101C141.06 28.1801 146.35 22.9501 151.65 17.7201C156.86 12.5701 162.08 7.42014 167.3 2.27014C167.39 2.18014 167.5 2.09014 167.73 1.89014H167.74Z" fill="url(#paint5_linear_2_88)"/>
<path d="M164.93 124.33L194 153.4H136.18L164.93 124.33Z" fill="url(#paint6_linear_2_88)"/>
</g>
<defs>
<linearGradient id="paint0_linear_2_88" x1="-1.64794" y1="31.0886" x2="60.4148" y2="93.1514" gradientUnits="userSpaceOnUse">
<stop stop-color="#4DC2BF"/>
<stop offset="1" stop-color="#3C58A7"/>
</linearGradient>
<linearGradient id="paint1_linear_2_88" x1="105.32" y1="122.75" x2="166.7" y2="122.75" gradientUnits="userSpaceOnUse">
<stop stop-color="#4DC2BF"/>
<stop offset="1" stop-color="#EA8C28"/>
</linearGradient>
<linearGradient id="paint2_linear_2_88" x1="45.304" y1="97.9101" x2="93.0407" y2="91.4684" gradientUnits="userSpaceOnUse">
<stop stop-color="#3C58A7"/>
<stop offset="1" stop-color="#E74691"/>
</linearGradient>
<linearGradient id="paint3_linear_2_88" x1="15.3368" y1="167.433" x2="75.9853" y2="106.784" gradientUnits="userSpaceOnUse">
<stop stop-color="#4DC2BF"/>
<stop offset="1" stop-color="#3C58A7"/>
</linearGradient>
<linearGradient id="paint4_linear_2_88" x1="105.25" y1="93.3101" x2="134.55" y2="93.3101" gradientUnits="userSpaceOnUse">
<stop stop-color="#F3EC61"/>
<stop offset="1" stop-color="#BE4C9C"/>
</linearGradient>
<linearGradient id="paint5_linear_2_88" x1="131.13" y1="94.5201" x2="198.23" y2="38.2201" gradientUnits="userSpaceOnUse">
<stop stop-color="#3C58A7"/>
<stop offset="1" stop-color="#E74691"/>
</linearGradient>
<linearGradient id="paint6_linear_2_88" x1="136.18" y1="138.87" x2="194" y2="138.87" gradientUnits="userSpaceOnUse">
<stop stop-color="#F3EC61"/>
<stop offset="1" stop-color="#BE4C9C"/>
</linearGradient>
<clipPath id="clip0_2_88">
<rect width="854.61" height="153.4" fill="white"/>
</clipPath>
</defs>
</svg>
