<svg width="207" height="38" viewBox="0 0 207 38" fill="none" xmlns="http://www.w3.org/2000/svg">
<path d="M116.48 25.8973C116.48 28.5414 116.471 31.1854 116.49 33.8294C116.492 34.226 116.425 34.375 115.988 34.3606C114.991 34.3245 113.992 34.3294 112.995 34.3606C112.611 34.3726 112.532 34.2572 112.534 33.8895C112.546 28.1159 112.544 22.3423 112.544 16.5711C112.544 14.891 112.554 13.2108 112.537 11.5307C112.534 11.2014 112.626 11.1076 112.955 11.1149C113.918 11.1365 114.883 11.1389 115.849 11.1149C116.211 11.1052 116.291 11.2278 116.281 11.5643C116.257 12.396 116.274 13.2252 116.274 14.0641C116.471 14.0641 116.475 13.8959 116.54 13.7997C117.765 11.9225 119.554 10.961 121.728 10.7759C126.894 10.3337 130.035 14.2107 130.544 18.2729C130.912 21.2054 130.335 23.9071 128.378 26.2098C125.885 29.1447 121.341 29.736 118.221 27.5486C117.563 27.0871 117.04 26.5007 116.485 25.8997L116.48 25.8973ZM121.529 25.1618C124.468 25.1618 126.683 22.8663 126.695 19.7969C126.709 16.7586 124.456 14.4006 121.541 14.403C118.608 14.403 116.379 16.7274 116.379 19.7824C116.379 22.8543 118.587 25.1594 121.526 25.1618H121.529Z" fill="white"/>
<path d="M88.0351 22.3784C88.943 23.3471 90.0405 23.835 91.3398 23.9648C90.3575 26.217 88.7508 27.777 86.4164 28.4644C82.6434 29.5749 79.1995 29.0173 76.488 25.9887C72.5901 21.6309 73.7141 13.6147 79.7302 11.2398C84.8169 9.23279 91.2678 11.9586 91.5127 19.1263C91.5295 19.5902 91.4599 20.0565 91.4671 20.5204C91.4719 20.8905 91.3302 20.9795 90.9676 20.9771C88.3065 20.9602 85.6455 20.9675 82.9869 20.9675C81.4738 20.9675 79.9608 20.9675 78.4477 20.9675C78.2364 20.9675 78.025 20.9001 78.0923 21.2847C78.4549 23.3399 80.0256 24.9527 82.1415 25.4046C84.2285 25.8493 86.4044 25.0272 87.4996 23.3663C87.6965 23.0658 87.8478 22.7341 88.04 22.3784H88.0351ZM87.61 17.7514C87.2738 15.6818 85.7992 14.3334 83.5464 14.0065C81.1592 13.6579 78.9593 15.0737 78.2868 17.3836C78.2316 17.5783 78.1307 17.7586 78.4934 17.7562C81.5195 17.7466 84.5431 17.7514 87.61 17.7514Z" fill="white"/>
<path d="M206.06 19.7416C206.084 24.8854 202.123 28.9332 197.044 28.9572C191.782 28.9837 187.797 25.0561 187.761 19.8089C187.725 14.641 191.767 10.5669 196.928 10.5645C202.037 10.5645 206.036 14.581 206.06 19.7392V19.7416ZM196.926 14.343C193.965 14.331 191.734 16.6409 191.724 19.732C191.714 22.7726 193.989 25.2003 196.873 25.2267C199.748 25.2556 202.092 22.8279 202.104 19.8113C202.116 16.6817 199.916 14.355 196.926 14.343Z" fill="white"/>
<path d="M152.154 25.8277C151.331 27.3612 150.046 28.3202 148.389 28.7C144.222 29.6519 140.408 26.9934 140.377 22.5971C140.35 18.9027 140.377 15.2107 140.362 11.5163C140.362 11.1629 140.487 11.1101 140.792 11.1149C141.823 11.1293 142.855 11.1413 143.886 11.1101C144.284 11.0981 144.339 11.2399 144.337 11.5932C144.325 14.7204 144.33 17.8499 144.327 20.9771C144.327 21.4121 144.356 21.84 144.443 22.2678C144.789 23.984 146.042 25.0729 147.774 25.1594C150.404 25.2916 152.183 23.6235 152.198 20.9699C152.214 17.8595 152.21 14.7468 152.193 11.6365C152.193 11.2302 152.279 11.1005 152.702 11.1125C153.732 11.1461 154.763 11.1317 155.795 11.1173C156.072 11.1125 156.165 11.1846 156.165 11.4754C156.158 17.0159 156.158 22.5563 156.165 28.0967C156.165 28.3899 156.069 28.4524 155.795 28.45C154.748 28.4356 153.701 28.4332 152.652 28.45C152.371 28.4549 152.287 28.3755 152.294 28.0919C152.313 27.3468 152.301 26.6016 152.301 25.8565L152.157 25.8301L152.154 25.8277Z" fill="white"/>
<path d="M106.758 16.975C105.161 13.6507 100.49 13.581 98.5327 16.1433C96.9548 18.208 96.9044 21.2319 98.4655 23.311C100.041 25.4094 103.182 25.9094 105.291 24.3999C106.011 23.8831 106.494 23.1764 106.893 22.3592C107.976 23.2557 109.174 23.7966 110.584 23.8735C110.534 24.1956 110.351 24.4552 110.2 24.722C108.665 27.4573 106.259 28.7457 103.194 28.9452C100.466 29.123 98.0764 28.3611 96.1023 26.4286C91.114 21.5443 93.2299 12.7037 99.8777 10.9394C103.293 10.0332 106.475 10.6173 109.064 13.2541C109.648 13.8502 110.082 14.5569 110.433 15.3766C109.028 15.4991 107.803 15.9871 106.763 16.975H106.758Z" fill="white"/>
<path d="M161.622 22.3712C162.186 24.9575 164.533 25.8901 166.584 25.4358C167.294 25.2772 167.88 24.9142 168.181 24.21C168.587 23.2557 168.255 22.3808 167.318 21.9121C166.387 21.4458 165.359 21.3064 164.364 21.0612C163.543 20.8593 162.739 20.6117 161.958 20.2752C158.123 18.6191 158.401 14.1843 160.911 12.1364C162.395 10.9274 164.107 10.4851 165.978 10.5909C167.854 10.6966 169.514 11.3192 170.791 12.7662C171.37 13.4224 171.776 14.1699 171.987 15.0497C170.707 15.1121 169.581 15.4847 168.618 16.3909C168.541 16.1938 168.474 16.0183 168.404 15.8428C167.715 14.117 165.424 13.2998 163.798 14.2084C163.224 14.5281 162.859 14.9919 162.871 15.689C162.883 16.3885 163.298 16.7755 163.884 17.0327C164.989 17.5158 166.185 17.6528 167.338 17.9509C168.738 18.3114 170.066 18.8234 171.046 19.9531C172.722 21.8856 172.523 25.0513 170.611 27.003C169.482 28.1568 168.08 28.7721 166.497 28.9163C164.504 29.099 162.585 28.8226 160.868 27.6832C159.52 26.7867 158.641 25.5584 158.264 23.9792C158.223 23.8134 158.108 23.6283 158.449 23.6211C159.636 23.597 160.676 23.1668 161.619 22.3688L161.622 22.3712Z" fill="white"/>
<path d="M66.5643 21.5732C66.5643 19.4267 66.5547 17.2826 66.574 15.1362C66.5764 14.7636 66.4851 14.6434 66.1056 14.6698C65.6085 14.7035 65.1065 14.6578 64.6094 14.6867C64.29 14.7035 64.2203 14.5881 64.2275 14.2901C64.2468 13.3767 64.2516 12.4609 64.2275 11.5451C64.2179 11.1773 64.3524 11.098 64.6839 11.1149C65.1642 11.1389 65.6493 11.1004 66.1297 11.1293C66.4779 11.1509 66.5764 11.0427 66.574 10.6894C66.5547 8.95877 66.5763 7.23052 66.5571 5.49989C66.5523 5.14895 66.6436 5.05763 66.9918 5.06484C68.0558 5.08888 69.1197 5.08647 70.1837 5.06484C70.5007 5.05763 70.5679 5.15859 70.5655 5.45904C70.5511 7.1392 70.5775 8.81934 70.5463 10.4971C70.5391 10.9778 70.6207 11.1869 71.1563 11.1317C71.6991 11.0764 72.2515 11.1293 72.8014 11.1149C73.0344 11.11 73.1233 11.1797 73.1209 11.4249C73.1113 12.4056 73.1113 13.3887 73.1209 14.3694C73.1233 14.6097 73.0464 14.6867 72.8086 14.6819C72.2106 14.6674 71.6102 14.7035 71.0146 14.6674C70.6352 14.6458 70.5487 14.766 70.5487 15.1362C70.5631 19.393 70.5487 23.6523 70.5679 27.9092C70.5679 28.3515 70.4646 28.4644 70.0251 28.45C68.9948 28.414 67.9645 28.4236 66.9342 28.4476C66.6148 28.4548 66.5547 28.3539 66.5571 28.0582C66.5691 25.8949 66.5643 23.734 66.5643 21.5708V21.5732Z" fill="white"/>
<path d="M133.102 15.8597C133.102 11.8191 133.107 7.77617 133.093 3.73562C133.093 3.37508 133.157 3.2549 133.546 3.26692C134.56 3.29817 135.576 3.29577 136.587 3.26692C136.966 3.25731 137.048 3.36306 137.048 3.73322C137.036 10.0861 137.038 16.4414 137.038 22.7942C137.038 24.5417 137.031 26.2867 137.046 28.0342C137.048 28.3563 136.969 28.4572 136.637 28.45C135.607 28.4284 134.574 28.4212 133.546 28.4524C133.16 28.4644 133.09 28.3466 133.093 27.9837C133.107 23.9432 133.102 19.9002 133.102 15.8597Z" fill="white"/>
<path d="M181.373 11.0596C182.711 11.4802 183.998 11.4778 185.316 11.0668C185.316 11.2711 185.316 11.4346 185.316 11.598C185.316 17.0375 185.309 22.4793 185.328 27.9188C185.328 28.3779 185.199 28.4645 184.776 28.45C183.763 28.4188 182.747 28.4356 181.733 28.4428C181.515 28.4428 181.363 28.45 181.366 28.1424C181.375 22.4697 181.373 16.7971 181.373 11.0596Z" fill="white"/>
<path d="M176.313 28.7433C174.831 28.7433 173.599 27.5486 173.606 26.1233C173.613 24.6595 174.843 23.4889 176.358 23.5009C177.828 23.5129 178.983 24.6643 178.991 26.1233C178.998 27.6039 177.833 28.7433 176.313 28.7409V28.7433Z" fill="white"/>
<path d="M183.309 8.87227C181.882 8.86506 180.691 7.71611 180.684 6.34121C180.679 4.98315 181.889 3.82941 183.323 3.82941C184.762 3.82941 185.96 4.96635 185.965 6.33403C185.967 7.74497 184.783 8.87708 183.309 8.86986V8.87227Z" fill="white"/>
<path d="M7.69986 30.1494L7.88239 0.377703C7.96885 0.372896 7.99767 0.435399 8.0385 0.476261C12.8874 5.38933 17.7364 10.3024 22.5901 15.2131C22.7054 15.3284 22.703 15.3837 22.5901 15.4943C21.9489 16.1168 21.3196 16.749 20.6832 17.3763C19.9915 18.0614 19.2974 18.7464 18.6058 19.4315C17.8685 20.1598 17.1335 20.8881 16.3962 21.6164C15.7046 22.3014 15.0105 22.9841 14.3164 23.6691C13.5743 24.4022 12.8322 25.1354 12.0925 25.8685C11.4008 26.5535 10.7067 27.2385 10.0151 27.9236C9.28735 28.6423 8.56204 29.361 7.83433 30.0797C7.80071 30.1133 7.76951 30.1494 7.70226 30.147L7.69986 30.1494Z" fill="url(#paint0_linear_2_223)"/>
<path d="M40.8451 29.8874C40.8018 29.9331 40.773 29.9691 40.7394 30.0028C38.3521 32.3944 35.9625 34.7836 33.5753 37.1777C33.4672 37.2858 33.412 37.2618 33.3183 37.168C31.4786 35.322 29.6366 33.4785 27.7945 31.6373C27.2637 31.106 26.733 30.57 26.1974 30.0436C26.0917 29.9403 26.0653 29.8826 26.1878 29.76C28.5846 27.3683 30.9791 24.9719 33.3663 22.573C33.4744 22.4625 33.5104 22.5394 33.5705 22.5995C34.4062 23.436 35.2444 24.2724 36.0802 25.1089C37.6221 26.6521 39.1639 28.1952 40.7058 29.7384C40.7538 29.7864 40.797 29.8369 40.8451 29.8898V29.8874Z" fill="url(#paint1_linear_2_223)"/>
<path d="M22.6934 15.165V15.2443C22.6934 20.0012 22.6934 24.758 22.6982 29.5148C22.6982 29.7144 22.6069 29.712 22.4628 29.712C17.9693 29.712 13.4758 29.712 8.98233 29.712H8.15618C12.9931 24.871 17.8444 20.018 22.6934 15.1674V15.165Z" fill="url(#paint2_linear_2_223)"/>
<path d="M22.763 29.7792C22.4412 30.0869 22.1122 30.3898 21.7951 30.7071C19.7705 32.7309 17.746 34.7572 15.7262 36.7835C15.6181 36.8917 15.5124 36.9445 15.3515 36.9421C10.5314 36.9373 5.7113 36.9373 0.891179 36.9373C0.864761 36.9373 0.838321 36.9373 0.809502 36.9325C0.809502 36.846 0.87677 36.8123 0.922402 36.7691C3.20157 34.4856 5.48553 32.2045 7.7599 29.9139C7.9136 29.76 8.06011 29.7023 8.27145 29.7023C13.0171 29.7071 17.7604 29.7071 22.5061 29.7071H22.7222L22.763 29.7768V29.7792Z" fill="url(#paint3_linear_2_223)"/>
<path d="M26.0869 15.725C26.3463 15.987 26.5816 16.2322 26.8218 16.4726C28.8896 18.5445 30.9599 20.6141 33.0277 22.6836C33.1045 22.7606 33.1862 22.8038 33.0589 22.9336C30.7485 25.2363 28.4453 27.5438 26.1398 29.8513C26.1301 29.8609 26.1181 29.8657 26.0869 29.885V15.7274V15.725Z" fill="url(#paint4_linear_2_223)"/>
<path d="M41.0972 0.832031L40.9123 30.7479C40.5088 30.3273 40.1486 29.9475 39.7835 29.5749C38.9742 28.7529 38.1624 27.9332 37.353 27.1112C36.5245 26.2699 35.6959 25.4286 34.8649 24.5873C34.07 23.7797 33.2727 22.9745 32.4753 22.1693C31.7548 21.441 31.0367 20.7126 30.3162 19.9819C29.5165 19.1695 28.7143 18.3595 27.9146 17.5471C27.3334 16.9582 26.757 16.3668 26.1734 15.7852C26.0773 15.6914 26.0941 15.6434 26.1781 15.5616C27.3454 14.4127 28.5102 13.2589 29.675 12.1076C30.9214 10.8745 32.1703 9.64143 33.4167 8.40836C34.6896 7.15124 35.9601 5.89412 37.233 4.63701C38.4842 3.39912 39.7379 2.16125 40.9916 0.923371C41.0132 0.901738 41.0396 0.880104 41.0948 0.832031H41.0972Z" fill="url(#paint5_linear_2_223)"/>
<path d="M40.4224 30.2599L47.404 37.2498H33.5176L40.4224 30.2599Z" fill="url(#paint6_linear_2_223)"/>
<defs>
<linearGradient id="paint0_linear_2_223" x1="0.415773" y1="7.85019" x2="15.3335" y2="22.7555" gradientUnits="userSpaceOnUse">
<stop stop-color="#4DC2BF"/>
<stop offset="1" stop-color="#3C58A7"/>
</linearGradient>
<linearGradient id="paint1_linear_2_223" x1="26.1061" y1="-277.559" x2="40.8451" y2="-277.559" gradientUnits="userSpaceOnUse">
<stop stop-color="#4DC2BF"/>
<stop offset="1" stop-color="#EA8C28"/>
</linearGradient>
<linearGradient id="paint2_linear_2_223" x1="11.6937" y1="23.9136" x2="23.1587" y2="22.3677" gradientUnits="userSpaceOnUse">
<stop stop-color="#3C58A7"/>
<stop offset="1" stop-color="#E74691"/>
</linearGradient>
<linearGradient id="paint3_linear_2_223" x1="4.49659" y1="40.6244" x2="19.0744" y2="26.0587" gradientUnits="userSpaceOnUse">
<stop stop-color="#4DC2BF"/>
<stop offset="1" stop-color="#3C58A7"/>
</linearGradient>
<linearGradient id="paint4_linear_2_223" x1="26.0869" y1="-277.56" x2="33.1261" y2="-277.56" gradientUnits="userSpaceOnUse">
<stop stop-color="#F3EC61"/>
<stop offset="1" stop-color="#BE4C9C"/>
</linearGradient>
<linearGradient id="paint5_linear_2_223" x1="32.3048" y1="23.0971" x2="48.431" y2="9.57535" gradientUnits="userSpaceOnUse">
<stop stop-color="#3C58A7"/>
<stop offset="1" stop-color="#E74691"/>
</linearGradient>
<linearGradient id="paint6_linear_2_223" x1="33.5176" y1="33.7549" x2="47.404" y2="33.7549" gradientUnits="userSpaceOnUse">
<stop stop-color="#F3EC61"/>
<stop offset="1" stop-color="#BE4C9C"/>
</linearGradient>
</defs>
</svg>
